<?xml version="1.0" encoding="UTF-8"?>
<svg id="Layer_2" xmlns="http://www.w3.org/2000/svg" viewBox="0 0 271.07 68.52">
  <defs>
    <style>
      .cls-1 {
        fill: #ed174f;
      }
    </style>
  </defs>
  <g id="Layer_1-2" data-name="Layer_1">
    <g>
      <g>
        <path class="cls-1" d="M68.02,25.29c11.82,0,18.3,8.66,18.3,19.59,0,1.21-.24,3.8-.24,3.8h-28.5c.81,7.29,6.16,11.1,12.39,11.1,6.64,0,11.58-4.62,11.58-4.62l4.29,7.13s-6.31,6.23-16.6,6.23c-13.68,0-22.18-9.88-22.18-21.61,0-12.71,8.58-21.62,20.97-21.62ZM75.79,41.56c-.16-4.94-3.56-8.34-7.77-8.34-5.26,0-8.99,3.16-10.12,8.34h17.89Z"/>
        <path class="cls-1" d="M182.68,36.79v-10.52h4.78c3.81,0,5.42,1.69,5.42,5.42v19.03c0,5.02,1.29,8.42,6.4,8.42,7.45,0,11.57-6.56,11.57-13.93v-18.94h10.28v41.29h-4.45c-3.56,0-5.43-1.7-5.43-4.61v-1.14c0-.97.09-1.86.09-1.86h-.17c-1.95,4.29-7.12,8.58-14.24,8.58-8.83,0-14.25-4.45-14.25-15.7v-16.03Z"/>
        <path class="cls-1" d="M125.15,9.22l-4.91-2.29v18.25c3.49,7.01,3.91,14.12,3.91,14.12-.95-4.02-2.71-7.27-4.57-9.79-1.26-1.42-4.57-4.21-11.28-4.21-10.93,0-18.79,8.5-18.79,21.62s7.21,21.61,18.38,21.61c9.47,0,12.87-6.72,12.87-6.72h.16v1.53c0,2.43,1.38,4.22,5.1,4.22h4.54V18.26c0-3.81-1.36-7.04-5.42-9.04ZM110.16,59.86c-6.07,0-10.2-5.1-10.2-12.95s4.69-12.79,10.36-12.79c6.88,0,10.2,6.31,10.2,12.71,0,9.15-5.02,13.03-10.36,13.03Z"/>
        <path class="cls-1" d="M159.87,25.29c-8.98,0-11.9,5.02-11.9,5.02h-.16s0-1.05,0-2.43V0l-4.53,2.72c-3.83,2.04-5.68,6.66-5.68,10.47v54.36h4.53c2.75,0,4.21-.98,4.79-2.47-2.42-5.6-2.95-10.56-2.95-10.56.82,2.83,2.04,5.24,3.39,7.27h.02s.06.11.1.18c.26.39.53.78.8,1.14,1.53,1.96,5.16,5.4,11.97,5.4,11.17,0,18.37-8.82,18.37-21.61s-7.85-21.62-18.78-21.62ZM158.01,59.86c-5.35,0-10.36-3.89-10.36-13.03,0-6.4,3.31-12.71,10.2-12.71,5.67,0,10.36,4.62,10.36,12.79s-4.12,12.95-10.2,12.95Z"/>
        <path class="cls-1" d="M267.91,58.89c-1.13,0-1.78-.64-1.78-1.78V6.55l-4.53,2.72c-3.83,2.04-5.67,6.66-5.67,10.47v10.57s-.15,0-.15,0c0,0-2.91-5.02-11.91-5.02-10.92,0-18.77,8.5-18.77,21.62s7.2,21.61,18.38,21.61c9.47,0,12.87-6.72,12.87-6.72h.16v1.53c0,2.43,1.38,4.22,5.11,4.22h9.47v-8.67h-3.16ZM245.73,59.86c-6.07,0-10.19-5.1-10.19-12.95s4.69-12.79,10.36-12.79c6.87,0,10.2,6.31,10.2,12.71,0,9.15-5.02,13.03-10.37,13.03Z"/>
      </g>
      <path class="cls-1" d="M43.25,59.57c-5,0-5.4-1.81-10.58-8.7,4.7-.88,10.96-5.74,10.96-15.71,0-8.77-6.99-14.43-17.81-14.43H0v8.85h3.44c1.1,0,1.74.62,1.78,1.69v36.14h10.29v-16h6.2s6.33,9.24,10.18,13.22c3.75,3.87,6.98,3.63,13.16,3.63h1.61v-8.69h-3.41ZM24.71,46.02h-9.2v-16.44h9.08c4.42,0,6.95,2.84,6.95,6.68,0,6.99-2.66,9.65-6.84,9.76Z"/>
    </g>
  </g>
</svg>